<svg version="1.1" id="Layer_1" xmlns="http://www.w3.org/2000/svg" xmlns:xlink="http://www.w3.org/1999/xlink" x="0px" y="0px" viewBox="0 0 20.5 20.5" enable-background="new 0 0 20.5 20.5" xml:space="preserve" fill="#fff">
<path d="M3.4,20.2L20.2,3.4c0.2-0.2,0.3-0.5,0.3-0.8c0-0.3-0.1-0.6-0.3-0.8l-1.5-1.5C18.5,0.1,18.2,0,17.9,0c-0.3,0-0.6,0.1-0.8,0.3
	L0.3,17.2C0.1,17.4,0,17.6,0,17.9c0,0.3,0.1,0.6,0.3,0.8l1.5,1.5c0.2,0.2,0.5,0.3,0.8,0.3C2.9,20.5,3.2,20.4,3.4,20.2"/>
<path d="M20.2,17.2L3.4,0.3C3.2,0.1,2.9,0,2.6,0C2.3,0,2.1,0.1,1.8,0.3L0.3,1.8C0.1,2.1,0,2.3,0,2.6c0,0.3,0.1,0.6,0.3,0.8
	l16.8,16.8c0.2,0.2,0.5,0.3,0.8,0.3c0.3,0,0.6-0.1,0.8-0.3l1.5-1.5c0.2-0.2,0.3-0.5,0.3-0.8C20.5,17.6,20.4,17.4,20.2,17.2"/>
</svg>