<svg version="1.1" id="Layer_1" xmlns="http://www.w3.org/2000/svg" xmlns:xlink="http://www.w3.org/1999/xlink" x="0px" y="0px" viewBox="0 0 43.1 48.4" enable-background="new 0 0 43.1 48.4" xml:space="preserve" fill="#fff">
<path d="M13.2,44c-2.9-3.5-7.4-10.3-9.8-13.3c-2.4-3-4.8-6.5-2.5-8.4c2.1-1.8,6.5,2.8,6.5,2.8s4.3,6,5.7,5.7
	c1.4-0.3-1.3-22.1-1.3-22.1s-1-5.6,2.1-5.9C17.2,2.4,17.3,7,17.3,7s1.4,13.8,2.2,13.8c0.8,0,0.4-15.3,0.4-15.3S19.6,0.2,21.8,0
	C26.4-0.4,26,5.5,26,5.5s0,15.6,0.8,15.6c0.8,0,2.1-14.2,2.1-14.2s0.4-4.3,3.7-3.8c3.3,0.5,2.4,4.2,2.4,4.2s-2.4,15.2-1.4,15.5
	c2.2,0.7,4.5-10.1,4.5-10.1s0.5-3.7,3.1-2.9c3.3,0.9,1.7,5,1.7,5l-5.2,19.8c0,0-2.3,11.2-8.9,12.8C18.1,50,15.6,46.9,13.2,44z"/>
</svg>