<svg version="1.1" id="Layer_1" xmlns="http://www.w3.org/2000/svg" xmlns:xlink="http://www.w3.org/1999/xlink" x="0px" y="0px"
	 viewBox="0 0 49.7 49.7" enable-background="new 0 0 49.7 49.7" xml:space="preserve" fill="#07284f">
<g>
	<path d="M28.1,17.5v17.2c0,1.5,0.2,2.5,0.5,2.9c0.4,0.4,1.1,0.7,2.1,0.7v0.8H19v-0.8c1,0,1.7-0.3,2.1-0.8c0.3-0.4,0.5-1.3,0.5-2.8
		V22.1c0-1.5-0.2-2.5-0.5-2.9c-0.4-0.4-1-0.7-2.1-0.7v-0.9H28.1z M24.9,9c1,0,1.9,0.4,2.6,1.1c0.7,0.7,1,1.6,1,2.5
		c0,1-0.4,1.8-1.1,2.5c-0.7,0.7-1.6,1-2.5,1s-1.8-0.3-2.5-1c-0.7-0.7-1-1.5-1-2.5c0-1,0.3-1.8,1-2.5C23,9.3,23.9,9,24.9,9z"/>
</g>
<g>
	<path d="M24.8,3.5c11.8,0,21.3,9.6,21.3,21.3s-9.6,21.3-21.3,21.3S3.5,36.6,3.5,24.8S13.1,3.5,24.8,3.5 M24.8,0
		C11.1,0,0,11.1,0,24.8c0,13.7,11.1,24.8,24.8,24.8c13.7,0,24.8-11.1,24.8-24.8C49.7,11.1,38.5,0,24.8,0L24.8,0z"/>
</g>
</svg>