<svg version="1.1" xmlns="http://www.w3.org/2000/svg" xmlns:xlink="http://www.w3.org/1999/xlink" x="0px" y="0px" viewBox="0 0 17.3 17.3" enable-background="new 0 0 17.3 17.3" xml:space="preserve" fill="#fff">
	<path d="M16.8,14.5l-4-4c-0.6,0.9-1.4,1.7-2.3,2.3l4,4c0.6,0.6,1.7,0.6,2.3,0C17.4,16.2,17.4,15.1,16.8,14.5"/>
	<path d="M13,6.5C13,2.9,10.1,0,6.5,0C2.9,0,0,2.9,0,6.5C0,10.1,2.9,13,6.5,13C10.1,13,13,10.1,13,6.5 M6.5,11.3
		c-2.7,0-4.9-2.2-4.9-4.9c0-2.7,2.2-4.9,4.9-4.9c2.7,0,4.9,2.2,4.9,4.9C11.3,9.2,9.2,11.3,6.5,11.3"/>
	<path d="M2.7,6.5h1.1C3.8,5,5,3.8,6.5,3.8V2.7C4.4,2.7,2.7,4.4,2.7,6.5"/>
</svg>