<svg version="1.1" id="Layer_1" xmlns="http://www.w3.org/2000/svg" xmlns:xlink="http://www.w3.org/1999/xlink" x="0px" y="0px" viewBox="0 0 14.5 16.6" enable-background="new 0 0 14.5 16.6" xml:space="preserve" fill="#fff">
<path d="M13.5,2.1h-1V1c0-0.6-0.5-1-1-1H1C0.5,0,0,0.5,0,1v12.4c0,0.6,0.5,1,1,1h1v1c0,0.6,0.5,1,1,1h10.4c0.6,0,1-0.5,1-1V3.1
	C14.5,2.5,14,2.1,13.5,2.1 M1,1h10.4v12.4H1V1z M13.5,15.5H3.1v-1h8.3c0.6,0,1-0.5,1-1V3.1h1V15.5z"/>
<path d="M9.8,3.1H4.7c-0.3,0-0.5,0.2-0.5,0.5c0,0.3,0.2,0.5,0.5,0.5h5.2c0.3,0,0.5-0.2,0.5-0.5C10.4,3.3,10.1,3.1,9.8,3.1"/>
<path d="M9.8,6.2H2.6c-0.3,0-0.5,0.2-0.5,0.5c0,0.3,0.2,0.5,0.5,0.5h7.3c0.3,0,0.5-0.2,0.5-0.5C10.4,6.4,10.1,6.2,9.8,6.2"/>
<path d="M9.8,8.3H2.6c-0.3,0-0.5,0.2-0.5,0.5c0,0.3,0.2,0.5,0.5,0.5h7.3c0.3,0,0.5-0.2,0.5-0.5C10.4,8.5,10.1,8.3,9.8,8.3"/>
<path d="M9.8,10.4H2.6c-0.3,0-0.5,0.2-0.5,0.5c0,0.3,0.2,0.5,0.5,0.5h7.3c0.3,0,0.5-0.2,0.5-0.5C10.4,10.6,10.1,10.4,9.8,10.4"/>
</svg>