<svg version="1.1" id="Layer_1" xmlns="http://www.w3.org/2000/svg" xmlns:xlink="http://www.w3.org/1999/xlink" x="0px" y="0px" viewBox="0 0 38.6 25.4" enable-background="new 0 0 38.6 25.4" xml:space="preserve" fill="#fff">
<g>
	<path d="M35.4,10.2c-3-3.7-7.6-6.1-12.7-6.1C15,4.1,8.7,9.3,6.9,16.3H2.7C4.6,7,12.8,0,22.6,0C28.8,0,34.3,2.7,38,7.1
		C39.9,9.2,36.9,12.2,35.4,10.2z"/>
	<path d="M10.4,18l-4,6.7c-0.6,1-1.5,1-2.1,0l-4-6.6c-0.6-1-0.1-1.8,1-1.8l8.1,0C10.5,16.3,10.9,17.1,10.4,18z"/>
</g>
</svg>