<svg version="1.1" id="Layer_1" xmlns="http://www.w3.org/2000/svg" xmlns:xlink="http://www.w3.org/1999/xlink" x="0px" y="0px"
	 viewBox="0 0 63.5 42.4" enable-background="new 0 0 63.5 42.4" xml:space="preserve">
<line fill="none" stroke="#231F20" stroke-width="2" stroke-linejoin="round" stroke-miterlimit="10" x1="32.5" y1="42.4" x2="32.5" y2="1"/>
<path fill="none" stroke="#231F20" stroke-width="2" stroke-linejoin="round" stroke-miterlimit="10" d="M1,42.4c0,0,0-11.1,0-14
	c0,0-0.1-2.3,0.5-3.5s2.4-3.3,2.4-3.8s-1.3-1.4-1-3.6c0.3-2.2,4.8-9.3,10.7-12.4"/>
<circle fill="none" stroke="#231F20" stroke-width="2" stroke-linejoin="round" stroke-miterlimit="10" cx="15.1" cy="3.1" r="2.1"/>
<line fill="none" stroke="#231F20" stroke-width="2" stroke-linejoin="round" stroke-miterlimit="10" x1="32.5" y1="18.9" x2="60.2" y2="18.9"/>
<path fill="none" stroke="#231F20" stroke-width="2" stroke-linejoin="round" stroke-miterlimit="10" d="M32.5,5.1h17
	c0,0,2.1,0.1,2.1-2c0-2.1-4-2.1-4-2.1L15.4,1.1"/>
<path fill="none" stroke="#231F20" stroke-width="2" stroke-linejoin="round" stroke-miterlimit="10" d="M62.5,42.4c0,0,0-11.1,0-14
	c0,0,0.1-2.3-0.5-3.5s-2.4-3.3-2.4-3.8s1.3-1.4,1-3.6c-0.3-2.2-4.8-9.3-10.7-12.4"/>
<line fill="none" stroke="#231F20" stroke-width="2" stroke-linejoin="round" stroke-miterlimit="10" x1="32.5" y1="25.2" x2="62" y2="25.2"/>
</svg>