<svg version="1.1" id="Layer_1" xmlns="http://www.w3.org/2000/svg" xmlns:xlink="http://www.w3.org/1999/xlink" x="0px" y="0px"
	 viewBox="0 0 49 30" enable-background="new 0 0 49 30" xml:space="preserve">
<path fill="#1C3664" d="M24.5,2.5C17.6,2.5,12,8.1,12,15c0,6.9,5.6,12.5,12.5,12.5C31.4,27.5,37,21.9,37,15
	C37,8.1,31.4,2.5,24.5,2.5z M23.6,12.4c-1.3,2.4-3.7,3.7-5.3,2.8c-1.6-0.9-1.8-3.5-0.4-6c1.3-2.4,3.7-3.7,5.3-2.8
	C24.8,7.3,25,9.9,23.6,12.4z"/>
<g>
	<path fill="#1C3664" d="M24.5,2.5c13.5,0,20,9.1,21.7,12.1c-1.4,3.2-7.1,12.8-21.7,12.8c-14.7,0-20.3-9.7-21.7-12.8
		C4.5,11.7,11.1,2.5,24.5,2.5 M24.5,0C6.9,0,0,14.5,0,14.5S5.2,30,24.5,30S49,14.5,49,14.5S42.1,0,24.5,0L24.5,0z"/>
</g>
</svg>