<svg version="1.1" id="Layer_1" xmlns="http://www.w3.org/2000/svg" xmlns:xlink="http://www.w3.org/1999/xlink" x="0px" y="0px"
	 viewBox="0 0 17.2 15.5" enable-background="new 0 0 17.2 15.5" xml:space="preserve">
<g>
	<path fill="#1c3663" d="M16.2,5.9C15.5,2.5,12.6,0,9,0C6.7,0,4.7,1,3.4,2.6c-0.7,0.8,0.4,1.9,1,1.1C5.4,2.3,7.1,1.5,9,1.5
		c2.8,0,5.1,1.9,5.7,4.4H16.2z"/>
	<path fill="#1c3663" d="M16.7,5.9l-3,0c-0.4,0-0.6,0.3-0.4,0.6L14.9,9c0.2,0.3,0.5,0.3,0.8,0l1.4-2.4C17.3,6.2,17.1,5.9,16.7,5.9z"
		/>
</g>
<g>
	<path fill="#1c3663" d="M12.8,11.8c-1.1,1.4-2.8,2.2-4.6,2.2c-2.7,0-5.1-1.9-5.7-4.4H1c0.7,3.4,3.7,5.9,7.2,5.9
		c2.2,0,4.2-1,5.6-2.6C14.5,12.2,13.4,11.1,12.8,11.8z"/>
	<path fill="#1c3663" d="M3.8,9L2.3,6.5c-0.2-0.3-0.6-0.3-0.8,0L0.1,9c-0.2,0.3,0,0.6,0.4,0.6l3,0C3.8,9.6,4,9.3,3.8,9z"/>
</g>
</svg>