<svg version="1.1" xmlns="http://www.w3.org/2000/svg" xmlns:xlink="http://www.w3.org/1999/xlink" x="0px" y="0px" viewBox="0 0 48 48" enable-background="new 0 0 48 48" xml:space="preserve">
<g>
	<path fill="#3ACCE1" d="M41,41c9.4-9.4,9.4-24.6,0-34S16.4-2.3,7,7.1S-2.4,31.6,7,41S31.6,50.4,41,41z M23,14.4
		c0.6,0.5,0.6,1.5,0,2.1l-5.9,6l17.6,0.1c0.9,0,1.5,0.7,1.5,1.5c0,0.9-0.7,1.5-1.5,1.5H17l5.9,5.9c0.6,0.5,0.6,1.5,0,2.1
		c-0.5,0.6-1.5,0.6-2.1,0l-8.5-8.5c-0.6-0.5-0.6-1.5,0-2.1l8.5-8.5C21.5,13.8,22.4,13.9,23,14.4z"/>
</g>
</svg>