<svg version="1.1" xmlns="http://www.w3.org/2000/svg" xmlns:xlink="http://www.w3.org/1999/xlink" x="0px" y="0px" viewBox="0 0 48 48" enable-background="new 0 0 48 48" xml:space="preserve">
<g>
	<path fill="#EDEFF2" d="M41,7c9.4,9.4,9.4,24.5,0,33.9s-24.5,9.4-33.9,0S-2.4,16.4,7.1,7S31.7-2.3,41,7z M27.2,33.5l8.5-8.5
		c0.6-0.6,0.6-1.6,0-2.1l0,0l-8.5-8.5c-0.6-0.6-1.6-0.6-2.1,0c-0.6,0.6-0.6,1.6,0,2.1l5.9,5.9H13.5c-0.8,0-1.5,0.6-1.5,1.5
		c0,0.8,0.6,1.5,1.5,1.5H31l-5.9,5.9c-0.6,0.6-0.6,1.6,0,2.1C25.7,34.2,26.6,34.1,27.2,33.5z"/>
</g>
</svg>