<svg version="1.1" xmlns="http://www.w3.org/2000/svg" xmlns:xlink="http://www.w3.org/1999/xlink" x="0px" y="0px" viewBox="0 0 53 30.9" enable-background="new 0 0 53 30.9" xml:space="preserve">
<g>
	<path fill="#F4F4F6" d="M39.8,30.4c0,0,0,0.1-0.1,0.1c-0.6,0.5-1.5,0.5-2-0.1l-0.1-0.1c-0.6-0.7-0.6-1.7,0-2.3l9.9-10.8h-46 c-0.8,0-1.5-0.4-1.5-1v-1.4c0-0.6,0.6-1,1.5-1h46.1l-10-10.9c-0.6-0.7-0.6-1.7,0-2.3l0.1-0.1l0.1-0.1c0.6-0.5,1.5-0.5,2,0.1 l12.5,13.6c0.1,0,0.2,0,0.2,0.1l0.1,0.1c0.6,0.7,0.6,1.6,0,2.3l-0.1,0.1c-0.1,0.1-0.1,0.2-0.2,0.2L39.8,30.4L39.8,30.4z"/>
</g>
</svg>
