<?xml version="1.0" encoding="utf-8"?>
<!-- Generator: Adobe Illustrator 21.1.0, SVG Export Plug-In . SVG Version: 6.00 Build 0)  -->
<svg version="1.1" id="Layer_1" xmlns="http://www.w3.org/2000/svg" xmlns:xlink="http://www.w3.org/1999/xlink" x="0px" y="0px"
	 viewBox="0 0 13.8 13.2" enable-background="new 0 0 13.8 13.2" xml:space="preserve">
<path id="ic_airline_seat_recline_extra_24px" fill="#454F63" d="M2.3,2.5C1.7,2.1,1.5,1.2,2,0.6s1.3-0.8,1.9-0.3
	c0.6,0.4,0.8,1.3,0.3,1.9C3.8,2.8,2.9,3,2.3,2.5L2.3,2.5z M9.7,11.8H4.8c-1,0-1.9-0.7-2-1.8L1.4,3.5H0l1.4,6.8
	c0.3,1.7,1.7,2.9,3.4,2.9h4.9V11.8z M9.8,9H6.5L5.8,6.2c1.1,0.7,2.3,1,3.6,0.8V5.5C8.2,5.7,7,5.4,6.1,4.7L4.9,3.8
	C4.8,3.7,4.6,3.6,4.4,3.5C4.2,3.5,4,3.4,3.7,3.5h0c-0.8,0.2-1.4,1-1.3,1.8l0.9,4.1c0.2,1,1,1.7,2,1.7h4.7l2.6,2.1l1-1L9.8,9z"/>
</svg>
