<?xml version="1.0" encoding="utf-8"?>
<!-- Generator: Adobe Illustrator 21.1.0, SVG Export Plug-In . SVG Version: 6.00 Build 0)  -->
<svg version="1.1" id="Group_1240" xmlns="http://www.w3.org/2000/svg" xmlns:xlink="http://www.w3.org/1999/xlink" x="0px" y="0px"
	 viewBox="0 0 11.8 15.7" enable-background="new 0 0 11.8 15.7" xml:space="preserve">
<g id="ic_card_membership_24px" transform="translate(0 0)">
	<path id="ic_card_membership_24px-2" fill="#454F63" d="M1.2,8.8h9.4c0.6,0,1.2-0.5,1.2-1.2c0,0,0,0,0,0V1.2c0-0.6-0.5-1.2-1.2-1.2
		c0,0,0,0,0,0H1.2C0.5,0,0,0.5,0,1.2c0,0,0,0,0,0v6.5C0,8.3,0.5,8.8,1.2,8.8C1.2,8.8,1.2,8.8,1.2,8.8z M1.2,1.2h9.4v1.2H1.2V1.2z
		 M1.2,4.1h9.4v3.5H1.2V4.1z"/>
</g>
<path id="Path_1009" fill="#454F63" stroke="#454F63" stroke-width="2" d="M6.2,15.7V8.4"/>
</svg>
