<svg version="1.1" xmlns="http://www.w3.org/2000/svg" xmlns:xlink="http://www.w3.org/1999/xlink" x="0px" y="0px" viewBox="0 0 16 10.9" enable-background="new 0 0 16 10.9" xml:space="preserve">
<path fill="#464F61" d="M14.5,6.6V4.3C13.1,4,12,2.9,11.7,1.5H4.3C4,2.9,2.9,4,1.5,4.3v2.3C2.9,6.9,4,8,4.3,9.5h7.4
	C12,8,13.1,6.9,14.5,6.6z M14.5,8.1c-0.6,0.2-1.1,0.7-1.3,1.3h1c0.2,0,0.4-0.2,0.4-0.4c0,0,0,0,0,0L14.5,8.1L14.5,8.1z M1.5,8.1v1
	c0,0.2,0.2,0.4,0.4,0.4c0,0,0,0,0,0h1C2.6,8.8,2.1,8.3,1.5,8.1L1.5,8.1z M13.2,1.5c0.2,0.6,0.7,1.1,1.3,1.3v-1
	c0-0.2-0.2-0.4-0.4-0.4c0,0,0,0,0,0L13.2,1.5z M2.8,1.5h-1c-0.2,0-0.4,0.2-0.4,0.4c0,0,0,0,0,0v1C2.1,2.6,2.6,2.1,2.8,1.5L2.8,1.5z
	 M0,1.8C0,0.8,0.8,0,1.8,0c0,0,0,0,0,0h12.4c1,0,1.8,0.8,1.8,1.8c0,0,0,0,0,0v7.3c0,1-0.8,1.8-1.8,1.8c0,0,0,0,0,0H1.8
	c-1,0-1.8-0.8-1.8-1.8c0,0,0,0,0,0V1.8z M8,8.4c-1.6,0-2.9-1.3-2.9-2.9S6.4,2.5,8,2.5s2.9,1.3,2.9,2.9S9.6,8.4,8,8.4L8,8.4z M8,6.9
	c0.8,0,1.5-0.7,1.5-1.5S8.8,4,8,4S6.5,4.7,6.5,5.5l0,0C6.5,6.3,7.2,6.9,8,6.9z"/>
</svg>