<svg version="1.1" xmlns="http://www.w3.org/2000/svg" xmlns:xlink="http://www.w3.org/1999/xlink" x="0px" y="0px" viewBox="0 0 16.8 16.7" enable-background="new 0 0 16.8 16.7" xml:space="preserve">
<path d="M8.3,0L8.3,0C3.7,0.1,0,3.8,0,8.5c0,4.5,3.7,8.2,8.3,8.3h0c4.6,0.1,8.4-3.7,8.5-8.3
	c0.1-4.6-3.7-8.4-8.3-8.5C8.4,0,8.4,0,8.3,0z M15.6,7.8h-3.1c0-1-0.2-2.1-0.4-3.1c0.7-0.2,1.4-0.5,2-0.8C14.9,5,15.4,6.4,15.6,7.8
	L15.6,7.8z M7.7,7.8H5.3c0-0.9,0.1-1.9,0.4-2.8C6.3,5.2,7,5.3,7.7,5.3L7.7,7.8z M7.7,8.9v2.5c-0.7,0-1.4,0.1-2.1,0.3
	c-0.2-0.9-0.3-1.8-0.4-2.8L7.7,8.9z M8.9,8.9h2.5c0,0.9-0.1,1.9-0.4,2.8c-0.7-0.2-1.4-0.3-2.1-0.3L8.9,8.9z M8.9,7.8V5.3
	c0.7,0,1.4-0.1,2.1-0.3c0.2,0.9,0.3,1.8,0.4,2.8L8.9,7.8z M13.3,3.1c-0.5,0.2-1,0.5-1.5,0.6c-0.2-0.8-0.6-1.5-1.1-2.2
	C11.6,1.8,12.5,2.4,13.3,3.1L13.3,3.1z M10.7,4c-0.6,0.1-1.2,0.2-1.8,0.2V1.3C9.8,1.9,10.4,2.9,10.7,4L10.7,4z M7.7,1.2v3
	C7.1,4.2,6.5,4.1,5.9,4C6.2,2.9,6.8,1.9,7.7,1.2z M5.9,1.5C5.5,2.2,5.1,2.9,4.8,3.7c-0.5-0.2-1-0.4-1.5-0.6C4.1,2.4,5,1.8,5.9,1.5z
	 M2.6,3.9c0.6,0.3,1.3,0.6,2,0.8c-0.2,1-0.4,2-0.4,3.1H1.1C1.2,6.4,1.7,5,2.6,3.9z M1.1,8.9h3.1c0,1,0.2,2.1,0.4,3.1
	c-0.7,0.2-1.3,0.5-2,0.8C1.7,11.7,1.2,10.4,1.1,8.9z M3.3,13.7c0.5-0.2,1-0.5,1.5-0.6c0.2,0.8,0.6,1.5,1.1,2.2
	C5,14.9,4.1,14.4,3.3,13.7z M5.9,12.8c0.6-0.1,1.2-0.2,1.8-0.2v3C6.8,14.8,6.2,13.9,5.9,12.8z M8.9,15.5v-3c0.6,0,1.2,0.1,1.8,0.2
	C10.4,13.8,9.8,14.8,8.9,15.5z M10.7,15.2c0.5-0.7,0.8-1.4,1.1-2.2c0.5,0.2,1,0.4,1.5,0.6C12.5,14.4,11.6,14.9,10.7,15.2z M14,12.8
	c-0.6-0.3-1.3-0.6-2-0.8c0.2-1,0.4-2,0.4-3.1h3.1C15.4,10.4,14.9,11.7,14,12.8z"/>
</svg>