<svg version="1.1" xmlns="http://www.w3.org/2000/svg" xmlns:xlink="http://www.w3.org/1999/xlink" x="0px" y="0px" viewBox="0 0 26.7 28" enable-background="new 0 0 26.7 28" xml:space="preserve">
<path fill="#454F63" d="M24.1,5.9h-5.3V2.9C18.8,1.4,17.6,0.1,16,0c0,0,0,0,0,0h-5.3C9.1,0.1,7.9,1.4,8,2.9
	c0,0,0,0,0,0v2.9H2.7C1.1,6-0.1,7.3,0,8.8c0,0,0,0,0,0L0,25c-0.1,1.5,1.1,2.9,2.7,2.9c0,0,0,0,0,0h21.4c1.5-0.1,2.7-1.4,2.7-2.9
	c0,0,0,0,0,0V8.8C26.8,7.3,25.6,6,24.1,5.9C24.1,5.9,24.1,5.9,24.1,5.9z M16,5.9h-5.3V2.9H16L16,5.9z"/>
</svg>
