<svg version="1.1" xmlns="http://www.w3.org/2000/svg" xmlns:xlink="http://www.w3.org/1999/xlink" x="0px" y="0px" viewBox="0 0 20 2.6" enable-background="new 0 0 20 2.6" xml:space="preserve">
<g>
	<path fill="#fff" d="M0,1.3L0,1.3C0,0.6,0.6,0,1.3,0l17.4,0C19.4,0,20,0.6,20,1.3l0,0c0,0.7-0.6,1.3-1.3,1.3H1.3
		C0.6,2.6,0,2,0,1.3z"/>
	<path fill="#fff" stroke="#fff" d="M0.5,1.3L0.5,1.3c0-0.5,0.4-0.8,0.8-0.8h17.4c0.5,0,0.8,0.4,0.8,0.8l0,0
		c0,0.5-0.4,0.8-0.8,0.8H1.3C0.9,2.1,0.5,1.7,0.5,1.3z"/>
</g>
</svg>