<svg version="1.1" xmlns="http://www.w3.org/2000/svg" xmlns:xlink="http://www.w3.org/1999/xlink" x="0px" y="0px" viewBox="0 0 20.1 20.1" enable-background="new 0 0 20.1 20.1" xml:space="preserve">
<g>
	<path fill="#fff" d="M10.1,0L10.1,0c0.7,0,1.3,0.6,1.3,1.3v17.5c0,0.7-0.6,1.3-1.3,1.3l0,0c-0.7,0-1.3-0.6-1.3-1.3V1.3
		C8.8,0.6,9.4,0,10.1,0z"/>
	<path fill="#fff" stroke="#fff" d="M10.1,0.5L10.1,0.5c0.5,0,0.8,0.4,0.8,0.8v17.5c0,0.5-0.4,0.8-0.8,0.8l0,0
		c-0.5,0-0.8-0.4-0.8-0.8V1.3C9.3,0.9,9.7,0.5,10.1,0.5z"/>
	<path fill="#fff" d="M10.1,0L10.1,0c0.7,0,1.3,0.6,1.3,1.3v17.4c0,0.7-0.6,1.3-1.3,1.3l0,0c-0.7,0-1.3-0.6-1.3-1.3V1.3
		C8.8,0.6,9.4,0,10.1,0z"/>
	<path fill="#fff" stroke="#fff" d="M10.1,0.5L10.1,0.5c0.5,0,0.8,0.4,0.8,0.8v17.4c0,0.5-0.4,0.8-0.8,0.8l0,0
		c-0.5,0-0.8-0.4-0.8-0.8V1.3C9.3,0.9,9.7,0.5,10.1,0.5z"/>
	<path fill="#fff" d="M0,10.1L0,10.1c0-0.7,0.6-1.3,1.3-1.3h17.5c0.7,0,1.3,0.6,1.3,1.3l0,0c0,0.7-0.6,1.3-1.3,1.3H1.3
		C0.6,11.4,0,10.8,0,10.1z"/>
	<path fill="#fff" stroke="#fff" d="M0.5,10.1L0.5,10.1c0-0.5,0.4-0.8,0.8-0.8h17.5c0.5,0,0.8,0.4,0.8,0.8l0,0
		c0,0.5-0.4,0.8-0.8,0.8H1.3C0.9,10.9,0.5,10.5,0.5,10.1z"/>
	<path fill="#fff" d="M0,10.1L0,10.1c0-0.7,0.6-1.3,1.3-1.3h17.4c0.7,0,1.3,0.6,1.3,1.3l0,0c0,0.7-0.6,1.3-1.3,1.3H1.3
		C0.6,11.4,0,10.8,0,10.1z"/>
	<path fill="#fff" stroke="#fff" d="M0.5,10.1L0.5,10.1c0-0.5,0.4-0.8,0.8-0.8h17.4c0.5,0,0.8,0.4,0.8,0.8l0,0
		c0,0.5-0.4,0.8-0.8,0.8H1.3C0.9,10.9,0.5,10.5,0.5,10.1z"/>
</g>
</svg>
