<svg version="1.1" xmlns="http://www.w3.org/2000/svg" xmlns:xlink="http://www.w3.org/1999/xlink" x="0px" y="0px" viewBox="0 0 934.4 724" enable-background="new 0 0 934.4 724" xml:space="preserve">
<g>
	<path fill-rule="evenodd" clip-rule="evenodd" fill="#454F63" d="M248,313c16.7,8.7,39.4,25.6,69,19C441.7,304,444.5-1.9,290,0
		c-12.7,4-25.3,8-38,12c-30.7,14.5-53.5,42.4-66,75C152.2,175.2,186.2,281,248,313z M628,333c22,41.6,101.3,57.2,118,1
		c9.7-5.6,23.6-3.4,37-6c30.2-5.9,57.8-13.8,73-35c-2.2-23-37.7-43.5-48-70c-37.3-95.6,5.7-205.5-134-205c-21.2,8.2-37.4,8-53,20
		c-46.7,36-45.7,117.1-66,180c-5.3,16.4-12.8,34.7-22,48c-5,7.3-12.8,11.6-15,22C536,321.4,582.9,325.9,628,333z M446,431
		c6-6.7,12-13.3,18-20c0.3-2.7,0.7-5.3,1-8c-16.6-16.1-49.3-37.2-80-37c-20.3,22.2-44.3,129.2-54,166c-1,0.7-2,1.3-3,2
		c-5.2-7.6-1.9-24.8-4-35c-5-24.1-15.3-62.3-17-83c3-6.3,6-12.7,9-19c4.2-23.2-28.5-26.5-47-22c-8.6,14.7,5.2,26.6,4,39
		c-4,40-20,82.8-26,125c-1,0.7-2,1.3-3,2c-19.6-46-23.7-150.1-60-175c-25.2,0.3-45.3,17.2-64,26c-26.7,12.6-87.9,33.1-100,57
		c-2.7,24.7-5.3,49.3-8,74C1.9,585.3,5.8,653.7,0,723c136,0.3,272,0.7,408,1c-3.5-76.7-14-170.5,8-236
		C422.9,467.6,433.8,446.8,446,431z M852,426c-13.3-5.2-31.9-14.1-46-14c-61.8,56.1-114.8,96.7-204,33c-11.1-7.9-31.6-16-36-30
		c-24.3-16-70.9,12.8-84,23c-64.1,49.9-49.2,178.4-48,285c166.3,0.3,332.7,0.7,499,1C933.9,598.1,949.7,464.2,852,426z"/>
</g>
</svg>