<svg version="1.1" xmlns="http://www.w3.org/2000/svg" xmlns:xlink="http://www.w3.org/1999/xlink" x="0px" y="0px" viewBox="0 0 28.4 28.4" enable-background="new 0 0 28.4 28.4" xml:space="preserve">
<path fill="#3acce1" d="M20.3,17.9H19l-0.5-0.4c3.8-4.4,3.3-11.1-1.1-14.9S6.3-0.7,2.5,3.7
	s-3.3,11.1,1.1,14.9c4,3.4,9.8,3.4,13.7,0l0.4,0.5v1.3l8.1,8.1l2.4-2.4L20.3,17.9z M10.6,17.9c-4,0-7.3-3.3-7.3-7.3s3.3-7.3,7.3-7.3
	s7.3,3.3,7.3,7.3C17.9,14.6,14.6,17.9,10.6,17.9C10.6,17.9,10.6,17.9,10.6,17.9L10.6,17.9z"/>
</svg>