<svg version="1.1" xmlns="http://www.w3.org/2000/svg" xmlns:xlink="http://www.w3.org/1999/xlink" x="0px" y="0px" viewBox="0 0 31.4 31.4" enable-background="new 0 0 31.4 31.4" xml:space="preserve">
<path fill="#3ACCE1" d="M15.7,10c-3.2,0-5.7,2.6-5.7,5.7s2.6,5.7,5.7,5.7s5.7-2.6,5.7-5.7l0,0
	C21.4,12.6,18.9,10,15.7,10C15.7,10,15.7,10,15.7,10z M28.5,14.3c-0.7-6-5.4-10.7-11.3-11.3V0h-2.9v2.9C8.3,3.6,3.6,8.3,2.9,14.3H0
	v2.9h2.9c0.7,6,5.4,10.7,11.3,11.3v2.9h2.9v-2.9c6-0.7,10.7-5.4,11.3-11.3h2.9v-2.9H28.5L28.5,14.3z M15.7,25.7c-5.5,0-10-4.5-10-10
	c0-5.5,4.5-10,10-10c5.5,0,10,4.5,10,10C25.7,21.2,21.2,25.7,15.7,25.7C15.7,25.7,15.7,25.7,15.7,25.7z"/>
</svg>