<svg version="1.1" id="Layer_1" xmlns="http://www.w3.org/2000/svg" xmlns:xlink="http://www.w3.org/1999/xlink" x="0px" y="0px" viewBox="0 0 60.4 48.3" enable-background="new 0 0 60.4 48.3" xml:space="preserve" fill="#fff">
    <rect x="5.9" width="3" height="14.7" />
    <path d="M56.1,5.5H19.9v3h36.3c0.7,0,1.3,0.6,1.3,1.3v34.1c0,0.7-0.6,1.3-1.3,1.3H10.2c-0.7,0-1.3-0.6-1.3-1.3V20.8
	h-3v23.2c0,2.4,1.9,4.3,4.3,4.3h45.9c2.4,0,4.3-1.9,4.3-4.3V9.8C60.4,7.4,58.5,5.5,56.1,5.5z" />
    <polygon points="14.7,41.1 25,14.7 32.3,28.9 37,22.9 48.9,41.1 " />
    <rect y="5.5" width="14.7" height="3" />
    <path d="M46.1,12.1c-0.6,0-1.1,0.1-1.6,0.2c2.3,0.7,3.9,2.8,3.9,5.3c0,2.5-1.7,4.6-3.9,5.3c0.5,0.2,1,0.2,1.6,0.2
	c3.1,0,5.5-2.5,5.5-5.5C51.6,14.6,49.1,12.1,46.1,12.1z" />
</svg>