<svg version="1.1" id="Layer_1" xmlns="http://www.w3.org/2000/svg" xmlns:xlink="http://www.w3.org/1999/xlink" x="0px" y="0px" viewBox="0 0 24.1 44.5" enable-background="new 0 0 24.1 44.5" xml:space="preserve" fill="#fff">
<g>
	<rect x="4.6" y="12.8" opacity="0.5" width="1" height="23.7"/>
	<g>
		<path d="M0,40.4c0,2.3,1.9,4.2,4.2,4.2h15.8c2.3,0,4.2-1.9,4.2-4.2V6H0V40.4z M2,8h20.1v32.4c0,1.2-1,2.2-2.2,2.2
			H4.2c-1.2,0-2.2-1-2.2-2.2V8z"/>
		<path d="M22.5,1.6H1.6C0.7,1.6,0,2.3,0,3.2c0,0.9,0.7,1.6,1.6,1.6h20.8c0.9,0,1.6-0.7,1.6-1.6
			C24.1,2.3,23.4,1.6,22.5,1.6z"/>
		<path d="M8.2,1.2h7.4c0.3,0,0.6-0.3,0.6-0.6C16.3,0.3,16,0,15.7,0H8.2C7.9,0,7.7,0.3,7.7,0.6
			C7.7,0.9,7.9,1.2,8.2,1.2z"/>
	</g>
</g>
</svg>