<svg version="1.1" id="Layer_1" xmlns="http://www.w3.org/2000/svg" xmlns:xlink="http://www.w3.org/1999/xlink" x="0px" y="0px" viewBox="0 0 20.3 19.9" enable-background="new 0 0 20.3 19.9" xml:space="preserve">
    <path fill="none" stroke="#fff" stroke-linecap="round" stroke-linejoin="round" stroke-miterlimit="10" d="M17.2,7.8l-0.5-1.2
	c0,0,1.1-2.6,1-2.7l-1.5-1.5c-0.1-0.1-2.7,1.1-2.7,1.1l-1.2-0.5c0,0-1-2.6-1.2-2.6H9.1c-0.1,0-1.1,2.6-1.1,2.6L6.8,3.6
	c0,0-2.6-1.1-2.7-1L2.5,4C2.4,4.1,3.6,6.6,3.6,6.6L3.1,7.8c0,0-2.6,1-2.6,1.2V11c0,0.1,2.7,1.1,2.7,1.1l0.5,1.2c0,0-1.1,2.6-1,2.7
	l1.5,1.5c0.1,0.1,2.7-1.1,2.7-1.1L8,16.8c0,0,1,2.6,1.2,2.6h2.1c0.1,0,1.1-2.6,1.1-2.6l1.2-0.5c0,0,2.6,1.1,2.7,1l1.5-1.5
	c0.1-0.1-1.1-2.6-1.1-2.6l0.5-1.2c0,0,2.7-1,2.7-1.2V8.9C19.8,8.7,17.2,7.8,17.2,7.8 M14.4,10c0,2.3-1.9,4.3-4.3,4.3
	c-2.3,0-4.3-1.9-4.3-4.3c0-2.3,1.9-4.2,4.3-4.2C12.5,5.7,14.4,7.6,14.4,10" />
</svg>