<svg version="1.1" id="Isolation_Mode" xmlns="http://www.w3.org/2000/svg" xmlns:xlink="http://www.w3.org/1999/xlink" x="0px" y="0px" viewBox="0 0 60.6 52" enable-background="new 0 0 60.6 52" xml:space="preserve" fill="#fff">
<g>
	<g>
		<path d="M59.4,45.6H1.2V35.2c0-1.8,1.5-3.3,3.3-3.3H6V10.5c0-3.1,2.5-5.6,5.6-5.6l39-4.9c0,0,0,0,0,0
			c1.8,0,2.9,0.7,3.5,2.2c0.5,1.1,0.5,2.5,0.5,3.5v4.5L54,10.4c-2.8,1.1-4.7,3.6-4.7,6.3c0,2.7,1.8,5.1,4.7,6.3l0.6,0.3v8.7h1.5
			c1.8,0,3.3,1.5,3.3,3.3V45.6z M3.2,43.6h54.2v-8.4c0-0.7-0.6-1.3-1.3-1.3h-3.5v-9.4c-3.2-1.5-5.3-4.6-5.3-7.8s2.1-6.3,5.3-7.8V5.6
			C52.6,2.5,52,2,50.7,2l-39,4.9C9.6,6.9,8,8.5,8,10.5v23.4H4.5c-0.7,0-1.3,0.6-1.3,1.3V43.6z"/>
		<path d="M52.7,12c-0.8,0-2.5,2.2-2.5,4.9c0,2.7,1.7,4.5,2.5,4.5c0.8,0,1.6-1.8,1.6-4.5C54.3,14.2,53.5,12,52.7,12z
			"/>
		<path d="M58.2,47H2.3C1,47,0,48.1,0,49.3v0.3C0,51,1,52,2.3,52h55.9c1.3,0,2.3-1,2.3-2.3v-0.3
			C60.6,48.1,59.5,47,58.2,47z M55,50.1c-5.9,0-43.8,0-49.7,0c-0.5,0-0.5-0.8,0-0.8c5.9,0,43.8,0,49.7,0
			C55.5,49.3,55.5,50.1,55,50.1z"/>
	</g>
	<path opacity="0.6" d="M10.9,33c-0.3-3.3-0.5-6.6-0.7-10C10,19.7,10,16.4,9.9,13l0,0.1c0-0.6,0-0.9,0.1-1.4
		c0.1-0.4,0.3-0.8,0.6-1.2c0.5-0.7,1.3-1.2,2-1.5c1.5-0.6,2.8-0.6,4.1-0.8C19.4,8,22,7.7,24.7,7.4c2.6-0.2,5.3-0.5,7.9-0.6
		c2.6-0.2,5.3-0.3,7.9-0.3c-2.6,0.6-5.2,1-7.8,1.5c-2.6,0.4-5.2,0.8-7.8,1.2c-2.6,0.4-5.2,0.7-7.8,1.1l-1.9,0.3
		c-0.6,0.1-1.2,0.2-1.7,0.4c-0.5,0.2-0.9,0.5-1.2,0.8c-0.1,0.2-0.2,0.4-0.3,0.6c-0.1,0.2-0.1,0.5-0.1,0.6l0,0.1l0,0
		c-0.1,3.3-0.1,6.6-0.3,10C11.4,26.3,11.2,29.6,10.9,33z"/>
</g>
</svg>