<svg version="1.1" id="Layer_1" xmlns="http://www.w3.org/2000/svg" xmlns:xlink="http://www.w3.org/1999/xlink" x="0px" y="0px" viewBox="0 0 15 16.9" enable-background="new 0 0 15 16.9" xml:space="preserve" fill="#fff">
<path d="M12.2,11.3c-0.6,0-1.2,0.2-1.7,0.6L5.6,8.9c0-0.2,0-0.3,0-0.5c0-0.2,0-0.3,0-0.5l4.9-2.9c0.5,0.4,1.1,0.6,1.7,0.6
	c1.6,0,2.8-1.3,2.8-2.8C15,1.3,13.8,0,12.2,0c-1.6,0-2.8,1.3-2.8,2.8c0,0.2,0,0.3,0,0.5L4.5,6.2C4.1,5.9,3.5,5.6,2.8,5.6
	C1.3,5.6,0,6.9,0,8.5c0,1.6,1.3,2.8,2.8,2.8c0.6,0,1.2-0.2,1.7-0.6l4.9,2.9c0,0.2,0,0.3,0,0.5c0,1.6,1.3,2.8,2.8,2.8
	c1.6,0,2.8-1.3,2.8-2.8C15,12.5,13.8,11.3,12.2,11.3"/>
</svg>