<?xml version="1.0" encoding="utf-8"?>
<!-- Generator: Adobe Illustrator 21.1.0, SVG Export Plug-In . SVG Version: 6.00 Build 0)  -->
<svg version="1.1" id="Layer_1" xmlns="http://www.w3.org/2000/svg" xmlns:xlink="http://www.w3.org/1999/xlink" x="0px" y="0px"
	 viewBox="0 0 63.5 42.4" enable-background="new 0 0 63.5 42.4" xml:space="preserve">
<line fill="none" stroke="#FFFFFF" stroke-width="2" stroke-linejoin="round" stroke-miterlimit="10" x1="32.5" y1="42.4" x2="32.5" y2="1"/>
<path fill="none" stroke="#FFFFFF" stroke-width="2" stroke-linejoin="round" stroke-miterlimit="10" d="M1,42.4c0,0,0-11.1,0-14
	v-5.1c0,0,0-0.4,0-1.7c0-0.8,2.7-3.7,2.7-3.7S1,15.7,1,15.2s12.2-9.9,12.2-9.9"/>
<circle fill="none" stroke="#FFFFFF" stroke-width="2" stroke-linejoin="round" stroke-miterlimit="10" cx="15.1" cy="3.1" r="2.1"/>
<line fill="none" stroke="#FFFFFF" stroke-width="2" stroke-linejoin="round" stroke-miterlimit="10" x1="32.5" y1="16" x2="61.4" y2="16"/>
<path fill="none" stroke="#FFFFFF" stroke-width="2" stroke-linejoin="round" stroke-miterlimit="10" d="M32.5,5.1h17
	c0,0,2.1,0.1,2.1-2s-4-2.1-4-2.1L15.5,1.1"/>
<line fill="none" stroke="#FFFFFF" stroke-width="2" stroke-linejoin="round" stroke-miterlimit="10" x1="32.5" y1="21.7" x2="62" y2="21.7"/>
<path fill="none" stroke="#FFFFFF" stroke-width="2" stroke-linejoin="round" stroke-miterlimit="10" d="M62.5,42.4c0,0,0-11.1,0-14
	v-5.1c0,0,0-0.4,0-1.7c0-0.8-2.7-3.7-2.7-3.7s2.7-2.4,2.7-2.9S50.3,5.3,50.3,5.3"/>
</svg>
